<svg viewBox="0 0 640 400" data-background-color="#8abcd7" preserveAspectRatio="xMidYMid meet" height="400" width="640" xmlns="http://www.w3.org/2000/svg" xmlns:xlink="http://www.w3.org/1999/xlink"><rect width="640" height="400" x="0" y="0" opacity="1" fill="#8abcd7" data-fill-palette-color="background" id="background"></rect><g id="tight-bounds" transform="matrix(1,0,0,1,122.24000000000001,169.9422966614226)"><svg viewBox="0 0 395.52 60.11540667715481" height="60.11540667715481" width="395.52"><g><svg viewBox="0 0 395.52 60.11540667715481" height="60.11540667715481" width="395.52"><g transform="matrix(1,0,0,1,0,37.15373303698745)"><svg viewBox="0 0 395.52 22.961673640167362" height="22.961673640167362" width="395.52"><g><svg viewBox="0 0 395.52 22.961673640167362" height="22.961673640167362" width="395.52"><g><svg viewBox="0 0 395.52 22.961673640167362" height="22.961673640167362" width="395.52"><g transform="matrix(1,0,0,1,0,0)"><svg width="395.52" viewBox="2.549999952316284 -38.349998474121094 669.1400146484375 38.849998474121094" height="22.961673640167362" data-palette-color="#ffffff"><path d="M16.25-0.55L16.25-0.55Q18.75-0.55 20.68-1.9 22.6-3.25 22.6-5.98 22.6-8.7 20.53-10.15 18.45-11.6 14.63-12.68 10.8-13.75 9.08-14.55 7.35-15.35 5.8-16.65L5.8-16.65Q2.7-19.25 2.7-24.7L2.7-24.7Q2.7-29.15 5.88-32.35 9.05-35.55 14.55-35.55L14.55-35.55Q17.2-35.55 20.08-34.77 22.95-34 23.65-34 24.35-34 24.9-35L24.9-35 25.45-35 25.8-24.9 25-24.9Q22.6-29.25 19.98-31.88 17.35-34.5 14.28-34.5 11.2-34.5 9.5-33.08 7.8-31.65 7.8-29.28 7.8-26.9 9.83-25.63 11.85-24.35 14.8-23.55 17.75-22.75 18.68-22.45 19.6-22.15 20.98-21.63 22.35-21.1 23.23-20.53 24.1-19.95 25.08-19.07 26.05-18.2 26.6-17.15L26.6-17.15Q27.95-14.75 27.95-11.45L27.95-11.45Q27.95-6.05 24.58-2.78 21.2 0.5 15.7 0.5L15.7 0.5Q12.85 0.5 9.18-0.25 5.5-1 5.1-1L5.1-1Q4.4-1 3.75 0.5L3.75 0.5 3.05 0.5 2.55-11.4 3.4-11.4Q5.6-7.05 9.03-3.8 12.45-0.55 16.25-0.55ZM46.4-17.7L46.4-17.7 43.75-17.7 43.75-0.95 47-0.95 47 0 30.75 0 30.75-0.95 34-0.95 34-34.05 30.75-34.05 30.75-35 45.85-35Q52.35-35 55.07-34.33 57.8-33.65 58.9-32.7L58.9-32.7Q61.3-30.75 61.3-26.5 61.3-22.25 59.2-20.43 57.1-18.6 52.8-18.25L52.8-18.25 52.8-18.1Q56.85-17.55 58.45-15.7 60.05-13.85 60.05-9.5L60.05-9.5 60.05-6.85Q60.05-4.25 60.32-3.35 60.6-2.45 61.5-2.45 62.4-2.45 62.92-3.28 63.45-4.1 63.9-6.75L63.9-6.75 64.75-6.65Q64.2-2.4 62.82-0.95 61.45 0.5 57.35 0.5 53.25 0.5 51.52-1.43 49.8-3.35 49.8-8.65L49.8-8.65 49.8-12.3Q49.8-15.1 49.07-16.4 48.35-17.7 46.4-17.7ZM45.4-34.05L43.75-34.05 43.75-18.65 45.35-18.65Q48.2-18.65 49.57-20.4 50.95-22.15 50.95-26.1L50.95-26.1 50.95-27.55Q50.95-31.5 49.62-32.77 48.3-34.05 45.4-34.05L45.4-34.05ZM67.05-34.05L67.05-35 82.3-35 82.3-34.05 79.55-34.05 79.55-0.95 82.3-0.95 82.3 0 67.05 0 67.05-0.95 69.8-0.95 69.8-34.05 67.05-34.05ZM84.79-34.05L84.79-35 100.04-35 100.04-34.05 97.29-34.05 97.29-18.25 97.69-18.35 111.79-34.05 107.84-34.05 107.84-35 116.59-35 116.59-34.05 113.59-34.05 104.99-24.45 116.99-0.95 119.69-0.95 119.69 0 103.64 0 103.64-0.95 105.99-0.95 97.74-16.9 97.29-16.8 97.29-0.95 100.04-0.95 100.04 0 84.79 0 84.79-0.95 87.54-0.95 87.54-34.05 84.79-34.05ZM138.29-0.95L141.84-0.95 138.19-11.75 128.29-11.75 124.44-0.95 128.19-0.95 128.19 0 120.54 0 120.54-0.95 122.89-0.95 135.64-35.3 139.74-35.3 152.34-0.95 154.64-0.95 154.64 0 138.29 0 138.29-0.95ZM137.79-12.85L133.44-25.95 128.74-12.85 137.79-12.85ZM164.69-34.05L164.69-35 179.38-35Q186.94-35 190.63-32.83 194.34-30.65 194.34-25.05L194.34-25.05Q194.34-18.85 189.84-16.5L189.84-16.5Q185.63-14.35 178.09-14.35L178.09-14.35 177.69-14.35 177.69-0.95 183.94-0.95 183.94 0 164.69 0 164.69-0.95 167.94-0.95 167.94-34.05 164.69-34.05ZM179.03-34.05L177.69-34.05 177.69-15.3 178.74-15.3Q181.74-15.3 182.88-17.35 184.03-19.4 184.03-24L184.03-24 184.03-26.4Q184.03-30.65 182.96-32.35 181.88-34.05 179.03-34.05L179.03-34.05ZM220.18-15.45L220.18-15.45 220.18-19.15Q220.18-28.3 219.28-30.7L219.28-30.7Q218.28-33.45 216.43-34.1L216.43-34.1Q215.38-34.5 213.88-34.5 212.38-34.5 211.31-34.1 210.23-33.7 209.53-32.7 208.83-31.7 208.41-30.6 207.98-29.5 207.73-27.5L207.73-27.5Q207.43-24.6 207.43-18.95L207.43-18.95 207.43-15.35Q207.43-9.25 207.91-6.68 208.38-4.1 209.08-3L209.08-3Q210.63-0.55 213.88-0.55L213.88-0.55Q217.83-0.55 219.01-3.88 220.18-7.2 220.18-15.45ZM213.78 0.5Q205.43 0.5 201.31-4.03 197.18-8.55 197.18-17.13 197.18-25.7 201.61-30.63 206.03-35.55 214.13-35.55 222.23-35.55 226.36-30.88 230.48-26.2 230.48-17.6 230.48-9 226.31-4.25 222.13 0.5 213.78 0.5ZM233.28-34.05L233.28-35 247.98-35Q255.53-35 259.23-32.83 262.93-30.65 262.93-25.05L262.93-25.05Q262.93-18.85 258.43-16.5L258.43-16.5Q254.23-14.35 246.68-14.35L246.68-14.35 246.28-14.35 246.28-0.95 252.53-0.95 252.53 0 233.28 0 233.28-0.95 236.53-0.95 236.53-34.05 233.28-34.05ZM247.63-34.05L246.28-34.05 246.28-15.3 247.33-15.3Q250.33-15.3 251.48-17.35 252.63-19.4 252.63-24L252.63-24 252.63-26.4Q252.63-30.65 251.56-32.35 250.48-34.05 247.63-34.05L247.63-34.05ZM277.78-10.65Q277.78-6.05 279.35-3.6 280.93-1.15 285.03-1.15 289.13-1.15 291.33-3.7 293.53-6.25 293.53-11.45L293.53-11.45 293.53-34.05 290.28-34.05 290.28-35 297.58-35 297.58-34.05 294.83-34.05 294.83-11.8Q294.83-5.6 292.08-2.55 289.33 0.5 282.35 0.5 275.38 0.5 271.7-2.4 268.03-5.3 268.03-12.35L268.03-12.35 268.03-34.05 265.28-34.05 265.28-35 281.03-35 281.03-34.05 277.78-34.05 277.78-10.65ZM314.77-17.7L314.77-17.7 312.13-17.7 312.13-0.95 315.38-0.95 315.38 0 299.13 0 299.13-0.95 302.38-0.95 302.38-34.05 299.13-34.05 299.13-35 314.23-35Q320.73-35 323.45-34.33 326.18-33.65 327.27-32.7L327.27-32.7Q329.68-30.75 329.68-26.5 329.68-22.25 327.57-20.43 325.48-18.6 321.18-18.25L321.18-18.25 321.18-18.1Q325.23-17.55 326.82-15.7 328.43-13.85 328.43-9.5L328.43-9.5 328.43-6.85Q328.43-4.25 328.7-3.35 328.98-2.45 329.88-2.45 330.77-2.45 331.3-3.28 331.82-4.1 332.27-6.75L332.27-6.75 333.13-6.65Q332.57-2.4 331.2-0.95 329.82 0.5 325.73 0.5 321.63 0.5 319.9-1.43 318.18-3.35 318.18-8.65L318.18-8.65 318.18-12.3Q318.18-15.1 317.45-16.4 316.73-17.7 314.77-17.7ZM313.77-34.05L312.13-34.05 312.13-18.65 313.73-18.65Q316.57-18.65 317.95-20.4 319.32-22.15 319.32-26.1L319.32-26.1 319.32-27.55Q319.32-31.5 318-32.77 316.68-34.05 313.77-34.05L313.77-34.05ZM335.42-34.05L335.42-35 350.67-35 350.67-34.05 347.92-34.05 347.92-0.95 350.67-0.95 350.67 0 335.42 0 335.42-0.95 338.17-0.95 338.17-34.05 335.42-34.05ZM356.92-24.05L355.87-24.05 354.42-37.35Q356.42-38.35 357.67-38.35L357.67-38.35Q359.37-38.35 359.37-36.5L359.37-36.5Q359.37-35.35 358.92-33.2L358.92-33.2 356.92-24.05ZM377.47-0.55L377.47-0.55Q379.97-0.55 381.89-1.9 383.82-3.25 383.82-5.98 383.82-8.7 381.74-10.15 379.67-11.6 375.84-12.68 372.02-13.75 370.29-14.55 368.57-15.35 367.02-16.65L367.02-16.65Q363.92-19.25 363.92-24.7L363.92-24.7Q363.92-29.15 367.09-32.35 370.27-35.55 375.77-35.55L375.77-35.55Q378.42-35.55 381.29-34.77 384.17-34 384.87-34 385.57-34 386.12-35L386.12-35 386.67-35 387.02-24.9 386.22-24.9Q383.82-29.25 381.19-31.88 378.57-34.5 375.49-34.5 372.42-34.5 370.72-33.08 369.02-31.65 369.02-29.28 369.02-26.9 371.04-25.63 373.07-24.35 376.02-23.55 378.97-22.75 379.89-22.45 380.82-22.15 382.19-21.63 383.57-21.1 384.44-20.53 385.32-19.95 386.29-19.07 387.27-18.2 387.82-17.15L387.82-17.15Q389.17-14.75 389.17-11.45L389.17-11.45Q389.17-6.05 385.79-2.78 382.42 0.5 376.92 0.5L376.92 0.5Q374.07 0.5 370.39-0.25 366.72-1 366.32-1L366.32-1Q365.62-1 364.97 0.5L364.97 0.5 364.27 0.5 363.77-11.4 364.62-11.4Q366.82-7.05 370.24-3.8 373.67-0.55 377.47-0.55ZM401.26-34.05L401.26-35 416.86-35 416.86-34.05 413.96-34.05 413.96-18.55 423.91-18.55 423.91-34.05 420.96-34.05 420.96-35 436.61-35 436.61-34.05 433.66-34.05 433.66-0.95 436.61-0.95 436.61 0 420.96 0 420.96-0.95 423.91-0.95 423.91-17.25 413.96-17.25 413.96-0.95 416.86-0.95 416.86 0 401.26 0 401.26-0.95 404.21-0.95 404.21-34.05 401.26-34.05ZM462.71-15.45L462.71-15.45 462.71-19.15Q462.71-28.3 461.81-30.7L461.81-30.7Q460.81-33.45 458.96-34.1L458.96-34.1Q457.91-34.5 456.41-34.5 454.91-34.5 453.84-34.1 452.76-33.7 452.06-32.7 451.36-31.7 450.94-30.6 450.51-29.5 450.26-27.5L450.26-27.5Q449.96-24.6 449.96-18.95L449.96-18.95 449.96-15.35Q449.96-9.25 450.44-6.68 450.91-4.1 451.61-3L451.61-3Q453.16-0.55 456.41-0.55L456.41-0.55Q460.36-0.55 461.54-3.88 462.71-7.2 462.71-15.45ZM456.31 0.5Q447.96 0.5 443.84-4.03 439.71-8.55 439.71-17.13 439.71-25.7 444.14-30.63 448.56-35.55 456.66-35.55 464.76-35.55 468.89-30.88 473.01-26.2 473.01-17.6 473.01-9 468.84-4.25 464.66 0.5 456.31 0.5ZM496.46-9.25L502.46-35 515.81-35 515.81-34.05 513.06-34.05 513.06-0.95 515.81-0.95 515.81 0 500.56 0 500.56-0.95 503.31-0.95 503.31-32.2 503.11-32.2 495.61 0 489.36 0 480.56-32.35 480.36-32.35 480.36-0.95 483.11-0.95 483.11 0 476.31 0 476.31-0.95 479.06-0.95 479.06-34.05 476.31-34.05 476.31-35 489.81-35 496.46-9.25ZM518.1-33.9L518.1-35 544.1-35 544.6-25.1 543.7-25.1Q541.6-30.15 539.3-32.02 537-33.9 532.55-33.9L532.55-33.9 530.8-33.9 530.8-18.45 532.5-18.45Q534.85-18.45 536.45-20.23 538.05-22 538.7-25L538.7-25 539.45-25 539.45-10.2 538.6-10.2Q537.7-13.95 536.18-15.55 534.65-17.15 532-17.15L532-17.15 530.8-17.15 530.8-1.1 532.7-1.1Q537.3-1.1 540.53-3.85 543.75-6.6 544.95-10.9L544.95-10.9 545.95-10.9 545.55 0 518.1 0 518.1-1.1 521.05-1.1 521.05-33.9 518.1-33.9ZM549-34.05L549-35 563.7-35Q571.25-35 574.95-32.83 578.65-30.65 578.65-25.05L578.65-25.05Q578.65-18.85 574.15-16.5L574.15-16.5Q569.95-14.35 562.4-14.35L562.4-14.35 562-14.35 562-0.95 568.25-0.95 568.25 0 549 0 549-0.95 552.25-0.95 552.25-34.05 549-34.05ZM563.35-34.05L562-34.05 562-15.3 563.05-15.3Q566.05-15.3 567.2-17.35 568.35-19.4 568.35-24L568.35-24 568.35-26.4Q568.35-30.65 567.28-32.35 566.2-34.05 563.35-34.05L563.35-34.05ZM592.5-0.95L596.05-0.95 592.4-11.75 582.5-11.75 578.65-0.95 582.4-0.95 582.4 0 574.75 0 574.75-0.95 577.1-0.95 589.85-35.3 593.95-35.3 606.55-0.95 608.85-0.95 608.85 0 592.5 0 592.5-0.95ZM592-12.85L587.65-25.95 582.95-12.85 592-12.85ZM626.15-0.5L626.15-0.5Q628.6-0.5 629.27-1.4 629.95-2.3 629.95-4.45L629.95-4.45 629.95-14.15 626.75-14.15 626.75-15.25 641.15-15.25 641.15-14.15 639.2-14.15 639.2-0.05 638.45-0.05Q637.55-1.3 635.9-1.3L635.9-1.3Q635.2-1.3 631.72-0.4 628.25 0.5 625.8 0.5L625.8 0.5Q617.65 0.5 613.17-3.9 608.7-8.3 608.7-17.13 608.7-25.95 613.37-30.75 618.05-35.55 625.95-35.55L625.95-35.55Q629-35.55 632.07-34.77 635.15-34 635.65-34 636.15-34 636.4-34.23 636.65-34.45 636.95-35L636.95-35 637.5-35 637.9-24.15 637-24.15Q634.55-29 632.07-31.78 629.6-34.55 626.55-34.55L626.55-34.55Q618.9-34.55 618.9-19.6L618.9-19.6 618.9-15.65Q618.9-8.15 620.77-4.33 622.65-0.5 626.15-0.5ZM643.84-33.9L643.84-35 669.84-35 670.34-25.1 669.44-25.1Q667.34-30.15 665.04-32.02 662.74-33.9 658.29-33.9L658.29-33.9 656.54-33.9 656.54-18.45 658.24-18.45Q660.59-18.45 662.19-20.23 663.79-22 664.44-25L664.44-25 665.19-25 665.19-10.2 664.34-10.2Q663.44-13.95 661.92-15.55 660.39-17.15 657.74-17.15L657.74-17.15 656.54-17.15 656.54-1.1 658.44-1.1Q663.04-1.1 666.27-3.85 669.49-6.6 670.69-10.9L670.69-10.9 671.69-10.9 671.29 0 643.84 0 643.84-1.1 646.79-1.1 646.79-33.9 643.84-33.9Z" opacity="1" transform="matrix(1,0,0,1,0,0)" fill="#ffffff" class="undefined-text-0" data-fill-palette-color="primary" id="text-0"></path></svg></g></svg></g></svg></g></svg></g><g transform="matrix(1,0,0,1,175.42399969295928,0)"><svg viewBox="0 0 44.67200061408144 31.733032970711296" height="31.733032970711296" width="44.67200061408144"><g><svg xmlns="http://www.w3.org/2000/svg" viewBox="13.034151077270508 5.2678680419921875 80.1728515625 88.73213195800781" xml:space="preserve" x="8" y="0" height="31.733032970711296" width="28.67200061408144" class="icon-icon-0" data-fill-palette-color="accent" id="icon-0"><path d="M50.88 20.728c-5.227 0.536-6.524 4.193-6.592 7.49v0.01c-0.059 2.389 0.517 4.583 0.731 5.305 0.029 0.107 0.059 0.176 0.068 0.215-1.433-9.294 3.56-8.67 7.247-8.173 2.291 0.312 8.143 5.92-2.703 11.041 0.312-0.107 0.616-0.205 0.908-0.322 2.223-0.829 3.872-1.824 5.062-2.917 5.929-5.452 0.185-13.147-4.721-12.649z m2.126-14.59c-14.648 5.539-8.777 25.005-7.987 27.395 0.029 0.107 0.059 0.176 0.068 0.215-0.399-2.126-0.663-3.94-0.799-5.52v-0.01c-0.722-8.358 2.292-9.743 8.962-11.878 7.188-2.302 16.414 7.441 2.351 17.038a41.28 41.28 0 0 1-5.062 2.917c-0.039 0.02-0.068 0.039-0.107 0.059C81.875 25.984 68.621 0.228 53.006 6.138z m-6.212 9.568c2.409-7.792 11.811-7.871 11.811-7.871-9.519 3.052-6.945 7.09-11.811 7.871zM34.086 31.417c2.691-2.536 6.398-5.949 10.63 2.428 0-0.02-0.01-0.048-0.02-0.087-0.01-0.039-0.02-0.078-0.039-0.127s-0.039-0.107-0.059-0.166c0-0.01 0-0.02-0.01-0.039-0.322-0.859-1.103-2.77-2.409-4.516 0 0 0-0.009-0.009-0.009-1.98-2.643-5.159-4.867-9.714-2.272-4.301 2.458-4.496 12.103 3.569 13.04h0.01c1.551 0.185 3.414 0.048 5.618-0.537 0.341-0.088 0.683-0.195 1.044-0.302-11.8 2.145-10.298-5.823-8.611-7.413z m10.611 2.341c-0.01-0.039-0.02-0.078-0.039-0.127s-0.039-0.107-0.059-0.166c0-0.01 0-0.02-0.01-0.039-1.024-3.17-7.597-21.33-22.343-17.438C6.106 20.25 10.28 48.913 41.898 39.092c-0.078 0.01-0.166 0.029-0.244 0.039-2.068 0.332-3.93 0.498-5.618 0.537h-0.01c-17.087 0.4-15.253-12.922-8.056-15.234 6.681-2.136 9.928-2.76 14.2 4.467 0.009 0 0.009 0.009 0.009 0.009 0.8 1.356 1.629 2.984 2.536 4.935 0.002-0.019-0.008-0.048-0.018-0.087z m-28.761-3.297s-2.36-9.743 7.549-12.396c-8.865 3.599-3.472 13.147-7.549 12.396zM56.752 36.956c-1.59-0.205-3.502-0.058-5.764 0.546-0.322 0.088-0.645 0.176-0.976 0.283 11.8-2.136 10.298 5.823 8.601 7.412-2.7 2.556-6.388 5.939-10.62-2.408 0 0.019 0 0.038 0.01 0.068 0.029 0.059 0.048 0.137 0.078 0.224 0.009 0.039 0.029 0.088 0.039 0.127 0.332 0.888 1.131 2.838 2.458 4.584 1.979 2.613 5.148 4.769 9.675 2.194 4.281-2.438 4.485-12.045-3.501-13.03z m-5.94 0.576l0.177-0.03c2.125-0.341 4.046-0.517 5.764-0.546 17.018-0.36 15.165 12.922 7.978 15.225-6.652 2.135-9.909 2.77-14.151-4.389-0.81-1.365-1.668-3.023-2.585-5.003 0 0.019 0 0.038 0.01 0.068 0.029 0.059 0.048 0.137 0.078 0.224 0.009 0.039 0.029 0.088 0.039 0.127 1.044 3.238 7.627 21.3 22.344 17.419 16.138-4.263 11.954-32.916-19.654-23.095z m8.7 17.887c5.266 0.887 10.601-3.248 10.903-3.482-3.745 5.033-4.311 7.266-10.903 3.482z m-11.83-12.338c-0.03-0.107-0.059-0.176-0.068-0.215-0.01-0.02-0.01-0.029-0.01-0.029 1.453 9.333-3.55 8.708-7.227 8.211-2.301-0.321-8.153-5.919 2.702-11.04-0.341 0.117-0.673 0.224-0.985 0.341-2.155 0.819-3.774 1.794-4.945 2.857-5.998 5.452-0.234 13.176 4.682 12.679 5.179-0.527 6.505-4.125 6.592-7.402 0.068-2.418-0.527-4.671-0.741-5.402z m0 0c-0.03-0.107-0.059-0.176-0.068-0.215 0.41 2.166 0.673 4.019 0.809 5.618 0.692 8.29-2.311 9.655-8.962 11.791-7.198 2.312-16.434-7.462-2.312-17.067 1.405-0.956 3.043-1.912 4.945-2.857l0.185-0.088C10.835 50.64 24.09 76.396 39.704 70.477c14.649-5.539 8.768-24.997 7.978-27.396zM27.24 65.756c-3.842-7.987-0.234-12.717-0.234-12.717-2.575 8.758 3.979 9.216 0.234 12.717z" fill="#ffffff" data-fill-palette-color="accent"></path><circle cx="46.468" cy="38.04" r="2.387" fill="#ffffff" data-fill-palette-color="accent"></circle><path d="M43.467 36.495s-2.216 0.843-5.7-2.271c3.093-0.734 5.7 2.271 5.7 2.271zM44.905 40.985s-2.293 0.603-3.32 5.16c2.944-1.2 3.32-5.16 3.32-5.16zM48.022 35.067s2.293-0.602 3.319-5.16c-2.944 1.2-3.319 5.16-3.319 5.16zM49.46 39.557s2.217-0.842 5.7 2.271c-3.094 0.734-5.7-2.271-5.7-2.271zM51.033 51.94l0.308 7.456s0.324 9.49 0.324 25.339V94H56.4v-5.852s2.816-10.041 6.827-12.435c-3.522-0.065-6.827 5.607-6.827 5.607s1.217-22.624-5.367-29.38z" fill="#ffffff" data-fill-palette-color="accent"></path><path d="M74.199 66.937C57.619 63.522 58.107 77.42 58.107 77.42c1.893-3.13 7.07-5.12 14.629-3.218-5.12-0.79-9.997 1.999-11.703 7.363 27.736 7.588 31.959-22.119 32.174-23.777-0.225 0.994-3.141 12.415-19.008 9.149z m-10.971 4.417s3.9-4.594 12.435-1.093c-2.684 2.039-7.686-1.949-12.435 1.093z" fill="#ffffff" data-fill-palette-color="accent"></path></svg></g></svg></g><g><rect width="175.42399969295928" height="2.0707074253174893" y="28.662325545393806" x="220.09600030704073" fill="#ffffff" data-fill-palette-color="accent"></rect><rect width="175.42399969295928" height="2.0707074253174893" y="28.662325545393806" x="0" fill="#ffffff" data-fill-palette-color="accent"></rect><rect width="175.42399969295928" height="2.0707074253174893" y="24.52091069475883" x="220.09600030704073" fill="#ffffff" data-fill-palette-color="accent"></rect><rect width="175.42399969295928" height="2.0707074253174893" y="24.52091069475883" x="0" fill="#ffffff" data-fill-palette-color="accent"></rect></g></svg></g></svg><rect width="395.52" height="60.11540667715481" fill="none" stroke="none" visibility="hidden"></rect></g><defs></defs></svg>